PathFileType	4	(X/Y/Z)	C:/Users/opensim2020/Desktop/walking_exp_matlab/subject01_walking08_straight_01.trc																																																																																																																															
DataRate	CameraRate	NumFrames	NumMarkers	Units	OrigDataRate	OrigDataStartFrame	OrigNumFrames																																																																																																																											
100	100	8	43	mm	100	1012	377																																																																																																																											
Frame#	Time	LFHD			RFHD			LBHD			RBHD			C7			T10			CLAV			STRN			RBAK			LSHO			LUPA			LELB			LFRM			LWRA			LWRB			LFIN			RSHO			RUPA			RELB			RFRM			RWRA			RWRB			RFIN			LASI			RASI			LPSI			RPSI			LTHI			LKNE			LTIB			LANK			LHEE			LTOE			RTHI			RKNE			RTIB			RANK			RHEE			RTOE			*39			*40			*41			*42		
		X1	Y1	Z1	X2	Y2	Z2	X3	Y3	Z3	X4	Y4	Z4	X5	Y5	Z5	X6	Y6	Z6	X7	Y7	Z7	X8	Y8	Z8	X9	Y9	Z9	X10	Y10	Z10	X11	Y11	Z11	X12	Y12	Z12	X13	Y13	Z13	X14	Y14	Z14	X15	Y15	Z15	X16	Y16	Z16	X17	Y17	Z17	X18	Y18	Z18	X19	Y19	Z19	X20	Y20	Z20	X21	Y21	Z21	X22	Y22	Z22	X23	Y23	Z23	X24	Y24	Z24	X25	Y25	Z25	X26	Y26	Z26	X27	Y27	Z27	X28	Y28	Z28	X29	Y29	Z29	X30	Y30	Z30	X31	Y31	Z31	X32	Y32	Z32	X33	Y33	Z33	X34	Y34	Z34	X35	Y35	Z35	X36	Y36	Z36	X37	Y37	Z37	X38	Y38	Z38	X39	Y39	Z39	X40	Y40	Z40	X41	Y41	Z41	X42	Y42	Z42	X43	Y43	Z43
																																																																																																																																		
283	2.82	274.97034	1672.63806	-1077.76685	284.92575	1680.07764	-963.50415	173.08012	1600.38916	-1073.24646	180.68486	1606.15393	-952.37537	169.28676	1423.93225	-1030.48157	146.21956	1129.07422	-1016.1958	315.29288	1361.25769	-1027.54651	364.02563	1206.8446	-1034.11975	123.0298	1227.08081	-951.94159	256.72388	1386.66296	-1189.64722	260.33475	1202.35815	-1274.9071	288.09293	1051.23792	-1279.50464	378.82227	977.16992	-1297.67749	506.96881	926.30878	-1273.22937	464.78806	890.54755	-1296.75488	542.34412	857.64374	-1302.79456	252.62106	1384.25916	-875.28253	197.96941	1182.74805	-775.69525	196.86945	1058.48633	-776.74701	216.57118	939.82672	-747.43359	286.95068	817.40881	-768.02844	243.40115	821.33655	-729.29279	275.09094	741.66815	-731.61847	315.32193	921.3255	-1129.3938	330.53879	931.89172	-912.26038	133.00093	936.66272	-1059.43701	145.12465	940.10632	-915.06079	223.03802	594.24481	-1172.59961	181.05177	463.77856	-1156.17041	77.45071	303.91077	-1165.60718	-14.37259	101.59529	-1114.36121	-67.3659	86.61617	-1063.01685	119.43852	34.41166	-1110.3385	337.48465	605.57568	-840.84448	386.19492	457.37564	-868.22345	379.72888	282.4881	-855.88556	412.17151	77.81081	-894.43591	371.04446	35.23787	-947.26971	554.14233	48.48331	-889.17157	264.69995	1709.65833	-986.61548	1973.19983	1023.39465	-3101.88232	2012.54736	1022.01453	-3140.8125	NaN	NaN	NaN
284	2.83	281.04294	1673.14819	-1075.31067	291.13837	1680.50024	-961.15991	179.14793	1600.94885	-1070.69519	186.98979	1606.6637	-949.77081	175.3577	1424.28186	-1028.26343	152.92821	1129.42432	-1014.32495	321.63562	1361.89807	-1025.26355	370.77835	1207.6582	-1031.92188	129.65941	1227.16711	-950.12457	263.18033	1387.36194	-1187.41284	266.33917	1203.07031	-1272.58997	293.89432	1051.95044	-1277.31909	384.15482	977.28949	-1295.64697	511.88522	925.46259	-1271.3501	469.44504	890.0755	-1294.94788	546.83887	856.83765	-1301.21057	258.6911	1384.58044	-873.01794	204.51762	1182.84253	-773.75513	203.69283	1058.63916	-774.89728	223.25551	940.00372	-745.70367	293.55896	817.38141	-766.45038	250.04768	821.49677	-727.6181	281.86362	741.93945	-729.95544	322.5849	921.47693	-1127.54846	337.69775	932.4212	-910.65088	140.37694	937.41101	-1057.78467	152.34436	941.17365	-913.39954	230.34613	594.32428	-1170.79736	188.1927	463.92273	-1154.76855	82.29112	305.51852	-1164.94971	-12.53622	104.5185	-1114.67249	-65.77982	90.33827	-1063.59106	119.75597	34.56427	-1110.24976	344.71237	606.2572	-839.46039	392.16312	457.30667	-866.86731	384.18393	282.49121	-854.04315	413.02853	77.09105	-894.34082	372.03467	35.2588	-946.79883	555.0426	46.68479	-888.96771	270.91193	1710.172	-984.04376	1973.06104	1023.28937	-3101.9895	2012.45972	1022.0282	-3140.69043	NaN	NaN	NaN
285	2.84	287.13538	1673.7915	-1072.96143	297.37363	1681.06201	-958.69287	185.20369	1601.6051	-1068.21094	193.19366	1607.20593	-947.27301	181.65216	1424.58728	-1026.11401	159.74353	1129.78174	-1012.55481	328.00681	1362.62512	-1022.91595	377.53302	1208.55859	-1029.69531	136.26846	1227.40967	-948.30023	269.71234	1388.15759	-1185.09473	272.45569	1203.87134	-1270.30957	299.55896	1052.75598	-1275.21216	389.27289	977.47437	-1293.53699	516.65015	924.60199	-1269.45654	473.89935	889.5827	-1293.10278	551.02448	855.60132	-1299.34924	264.78189	1385.12769	-870.70685	210.60718	1183.04578	-771.79767	210.36783	1059.01587	-773.01355	230.25165	940.43127	-743.90967	300.58301	817.935	-764.87219	257.28439	821.78668	-725.95392	288.62775	742.10718	-728.47443	330.04483	921.80811	-1125.69287	344.8566	933.06439	-908.89722	147.82358	938.2489	-1056.30078	159.53899	942.48688	-911.9425	237.95496	594.45508	-1168.9917	195.80107	464.0954	-1153.44604	87.71378	307.16965	-1164.22803	-10.4503	107.59534	-1114.99048	-63.99893	94.24012	-1063.96265	119.88783	34.44207	-1110.29456	351.94699	606.93964	-838.06366	397.99417	457.38333	-865.57495	388.23044	282.15744	-852.41333	414.33069	77.11753	-894.02283	372.11249	35.97131	-946.5108	556.15234	45.52695	-889.04272	276.90027	1710.73108	-981.73834	1973.17542	1023.53656	-3101.86157	2012.44275	1021.9726	-3140.69434	NaN	NaN	NaN
286	2.85	293.2373	1674.48828	-1070.55627	303.66003	1681.70654	-956.25287	191.286	1602.32629	-1065.80444	199.40854	1607.84314	-944.81036	187.76492	1425.07983	-1023.85309	166.49974	1130.3147	-1010.91364	334.37891	1363.47327	-1020.58075	384.30756	1209.55347	-1027.45728	142.99844	1227.68811	-946.38489	276.27615	1389.00903	-1182.79041	278.68945	1204.7417	-1268.07922	305.09174	1053.47729	-1272.96252	394.22824	977.5755	-1291.5321	521.16852	923.62286	-1267.5824	478.16953	889.0025	-1291.20715	555.07568	854.46057	-1297.56958	270.91788	1385.9104	-868.4433	217.14531	1183.60376	-769.91949	217.23366	1059.49158	-771.1004	237.10934	940.95514	-742.18115	307.48737	818.50891	-763.23431	264.26285	822.36597	-724.23395	295.71643	742.51654	-727.00006	337.47748	922.21844	-1123.66553	351.92267	933.80231	-906.97552	155.22528	939.16302	-1054.8905	166.7666	943.65179	-910.41339	246.02165	594.54651	-1167.07263	203.82094	464.26328	-1152.36145	93.46941	308.97638	-1163.67126	-8.09103	110.71785	-1115.53723	-61.90864	98.6125	-1064.49487	120.22213	34.49915	-1110.28796	358.21265	607.2337	-837.18378	403.79791	457.49371	-864.58551	391.78192	282.35529	-851.1441	415.05981	77.05279	-893.83545	372.44897	36.23915	-946.1626	556.95831	44.45048	-889.60065	283.31516	1711.3551	-979.17224	1973.21753	1023.62164	-3101.95068	2012.63269	1022.12646	-3140.74146	NaN	NaN	NaN
287	2.86	299.38284	1675.26147	-1068.19067	309.8779	1682.40845	-953.93982	197.43971	1603.14319	-1063.3501	205.61276	1608.60144	-942.4389	193.98338	1425.6748	-1021.72186	173.36546	1130.87488	-1009.27899	340.72696	1364.40869	-1018.25903	391.03314	1210.56262	-1025.17334	149.60435	1228.14307	-944.40173	282.7576	1389.85913	-1180.4718	285.02042	1205.6676	-1265.98718	310.37802	1054.09998	-1270.58691	398.99927	977.62158	-1289.40393	525.54694	922.53369	-1265.70898	482.17093	888.32971	-1289.3103	558.8194	853.0022	-1295.65015	277.01923	1386.69629	-866.1297	223.36974	1184.19263	-767.9801	223.99339	1060.12769	-769.09961	244.15044	941.60773	-740.28345	314.43753	819.07788	-761.63092	271.33313	823.09705	-722.47504	302.86621	743.22693	-725.39398	344.98663	922.78925	-1121.58459	358.99222	934.63422	-904.8913	162.72655	940.1051	-1053.42236	173.87216	945.05975	-908.86536	254.33864	594.67615	-1165.19421	212.41631	464.32452	-1151.11243	99.49119	310.86389	-1163.32605	-5.43696	114.24013	-1115.96863	-59.39354	103.30218	-1064.98254	120.49854	34.5449	-1110.31494	364.20679	607.58795	-836.01825	409.31641	457.62219	-863.70923	395.93793	282.42987	-849.75574	416.25238	77.05475	-893.61877	372.72589	36.35925	-945.87701	557.87213	43.59175	-890.12494	289.54324	1712.09729	-976.87115	1973.20203	1023.48944	-3101.74658	2012.66479	1022.04846	-3140.53418	NaN	NaN	NaN
288	2.87	305.59741	1676.03369	-1065.80066	316.09125	1683.1604	-951.55017	203.56421	1604.00354	-1061.05444	211.83025	1609.37842	-940.11432	200.23212	1426.23523	-1019.60803	180.16882	1131.43567	-1007.53632	347.0705	1365.36328	-1015.90869	397.77408	1211.64539	-1022.86047	156.35867	1228.59021	-942.28418	289.24905	1390.77173	-1178.15283	291.45679	1206.5835	-1263.95251	315.60022	1054.7998	-1268.31189	403.56161	977.50067	-1287.30139	529.71008	921.3291	-1263.82813	485.99057	887.54633	-1287.38782	562.35754	851.48462	-1293.74109	283.17429	1387.51892	-863.85339	229.67578	1184.90076	-765.95337	230.66396	1060.8811	-767.1225	251.14621	942.34021	-738.47809	321.78513	820.0705	-759.97998	278.47522	823.8269	-720.72302	310.2088	744.047	-723.74182	352.44968	923.40875	-1119.34619	365.89145	935.48016	-902.70703	170.20061	941.01843	-1051.91199	180.98763	946.42926	-907.27496	263.14673	594.81549	-1163.33923	221.64742	464.36835	-1149.76758	106.11954	312.84122	-1162.98157	-2.40966	118.05807	-1116.70459	-56.57455	108.44137	-1065.64221	120.91634	34.63531	-1110.26599	370.23734	608.10736	-834.62061	414.59384	457.74915	-862.9505	399.94815	282.38043	-849.05988	417.00977	76.97242	-893.59436	372.63272	36.73856	-945.94653	558.66815	42.87482	-890.61395	295.80432	1712.95972	-974.23834	1973.15039	1023.51892	-3101.92505	2012.48486	1022.02649	-3140.59546	NaN	NaN	NaN
289	2.88	311.74677	1676.83667	-1063.59277	322.17041	1683.80396	-949.52844	209.72212	1604.83276	-1058.70215	218.05745	1610.20068	-937.7168	206.51682	1426.81201	-1017.43414	186.87099	1132.00842	-1005.80347	353.4465	1366.35107	-1013.63153	404.52582	1212.74756	-1020.53961	163.0062	1229.16052	-940.13116	295.72479	1391.64185	-1175.90625	297.87054	1207.46509	-1261.91626	320.70712	1055.44568	-1266.04517	407.76065	977.24585	-1285.25244	533.66931	920.00006	-1261.96533	489.59415	886.6131	-1285.4342	565.69141	849.83917	-1291.80322	289.40973	1388.36572	-861.80524	236.02792	1185.66833	-763.87634	237.42345	1061.63464	-765.02954	258.14453	943.15869	-736.54468	329.12256	821.19592	-758.34888	286.06772	824.73248	-719.00763	317.82227	744.99518	-722.09821	359.94724	924.19611	-1117.07349	372.95187	936.36505	-900.47894	177.57541	941.92902	-1050.36401	187.94478	947.45135	-905.59332	272.29086	594.95581	-1161.62317	231.23807	464.45245	-1149.03296	113.36257	314.92172	-1162.45129	0.92126	121.92129	-1117.26208	-53.20615	114.02268	-1066.29236	121.26363	34.69279	-1110.26074	376.17667	608.47687	-833.37659	419.28436	457.70987	-861.86749	403.59882	282.37601	-848.74609	417.65005	76.9174	-893.62872	372.84091	36.96452	-945.66888	559.25293	42.32003	-891.14337	302.06085	1713.63171	-972.19733	1973.02966	1024.01929	-3102.00708	2012.50964	1021.89716	-3140.5647	NaN	NaN	NaN
290	2.89	317.9046	1677.68066	-1061.38354	328.42722	1684.63318	-947.30872	215.80128	1605.69739	-1056.51685	224.22589	1611.02502	-935.48914	212.70576	1427.51221	-1015.35583	193.7175	1132.66333	-1003.97162	359.78519	1367.36511	-1011.32086	411.26547	1213.85352	-1018.21234	169.702	1229.72827	-937.91364	302.28131	1392.49133	-1173.66003	304.28857	1208.32556	-1259.92126	325.71887	1056.02161	-1263.83142	412.10327	977.02655	-1283.07935	537.41138	918.526	-1260.04578	492.99088	885.57605	-1283.44128	568.75995	848.06604	-1289.84326	295.48608	1389.24841	-859.49756	242.20319	1186.50867	-761.66199	244.03743	1062.4281	-762.98981	265.13657	943.96948	-734.61676	336.49521	822.12537	-756.5899	293.50436	825.63116	-717.21686	325.38544	745.85535	-720.53461	367.28934	925.04401	-1114.70874	379.8493	937.12555	-898.14728	184.85109	942.79938	-1048.75476	194.92308	948.53522	-903.87439	281.83945	595.15314	-1159.97107	241.55002	464.5498	-1147.88672	120.79296	317.24936	-1162.3147	4.72588	126.10435	-1117.79199	-49.38536	119.88439	-1066.78845	121.77223	34.80652	-1110.19226	381.47534	608.73126	-832.09741	423.43045	457.54913	-860.8844	406.70407	282.24579	-848.23175	418.45538	77.03619	-893.58771	372.953	37.09691	-945.586	559.58923	42.01605	-891.2301	308.25732	1714.54004	-969.75769	1973.10059	1023.80988	-3101.9646	2012.57373	1021.9126	-3140.72705	NaN	NaN	NaN
